<svg data-v-29081953="" xmlns="http://www.w3.org/2000/svg" viewBox="0 0 300 300"><!----><defs data-v-29081953=""><linearGradient data-v-29081953="" gradientTransform="rotate(25)" id="48e77232-e1ff-4c94-bc96-05282d743b09" x1="0%" y1="0%" x2="100%" y2="0%"><stop data-v-29081953="" offset="0%" stop-color="#006678" stop-opacity="1"></stop><stop data-v-29081953="" offset="100%" stop-color="#4FA8FF" stop-opacity="1"></stop></linearGradient></defs><rect data-v-29081953="" fill="url(#48e77232-e1ff-4c94-bc96-05282d743b09)" x="0" y="0" width="300px" height="300px" class="logo-background-square"></rect><defs data-v-29081953=""><!----></defs><g data-v-29081953="" id="66f65bf8-cf72-420c-bf6d-53a93fe85468" fill="#ffffff" transform="matrix(5.487652760355466,0,0,5.487652760355466,34.457470764375316,116.49788110171959)"><path d="M2.90 8.48L2.90 8.48L2.90 8.48Q2.91 8.72 3.02 8.86L3.02 8.86L3.02 8.86Q3.14 9.00 3.30 9.06L3.30 9.06L3.30 9.06Q3.46 9.13 3.66 9.13L3.66 9.13L3.66 9.13Q3.86 9.14 4.09 9.11L4.09 9.11L4.09 10.56L4.09 10.56Q3.89 10.60 3.75 10.62L3.75 10.62L3.75 10.62Q3.60 10.64 3.49 10.65L3.49 10.65L3.49 10.65Q3.36 10.67 3.28 10.65L3.28 10.65L3.28 10.65Q2.74 10.65 2.32 10.61L2.32 10.61L2.32 10.61Q1.90 10.57 1.61 10.34L1.61 10.34L1.61 10.34Q1.32 10.11 1.16 9.64L1.16 9.64L1.16 9.64Q1.01 9.17 1.01 8.30L1.01 8.30L1.01 1.55L2.90 1.55L2.90 8.48ZM9.13 3.12L9.13 3.12L9.13 3.12Q9.69 3.12 10.35 3.29L10.35 3.29L10.35 3.29Q11.00 3.46 11.58 3.88L11.58 3.88L11.58 3.88Q12.15 4.30 12.54 5.03L12.54 5.03L12.54 5.03Q12.92 5.75 12.92 6.89L12.92 6.89L12.92 6.89Q12.92 8.02 12.54 8.75L12.54 8.75L12.54 8.75Q12.15 9.48 11.58 9.90L11.58 9.90L11.58 9.90Q11.00 10.32 10.35 10.49L10.35 10.49L10.35 10.49Q9.69 10.65 9.13 10.65L9.13 10.65L9.13 10.65Q8.57 10.65 7.91 10.49L7.91 10.49L7.91 10.49Q7.25 10.32 6.69 9.90L6.69 9.90L6.69 9.90Q6.12 9.48 5.74 8.75L5.74 8.75L5.74 8.75Q5.36 8.02 5.36 6.89L5.36 6.89L5.36 6.89Q5.36 5.75 5.74 5.03L5.74 5.03L5.74 5.03Q6.12 4.30 6.69 3.88L6.69 3.88L6.69 3.88Q7.25 3.46 7.91 3.29L7.91 3.29L7.91 3.29Q8.57 3.12 9.13 3.12ZM9.13 9.25L9.13 9.25L9.13 9.25Q9.91 9.25 10.44 8.64L10.44 8.64L10.44 8.64Q10.96 8.02 10.96 6.89L10.96 6.89L10.96 6.89Q10.96 5.75 10.44 5.14L10.44 5.14L10.44 5.14Q9.91 4.54 9.13 4.54L9.13 4.54L9.13 4.54Q8.37 4.54 7.85 5.14L7.85 5.14L7.85 5.14Q7.34 5.75 7.34 6.89L7.34 6.89L7.34 6.89Q7.34 7.45 7.48 7.89L7.48 7.89L7.48 7.89Q7.62 8.33 7.85 8.63L7.85 8.63L7.85 8.63Q8.09 8.93 8.42 9.09L8.42 9.09L8.42 9.09Q8.75 9.25 9.13 9.25ZM19.19 3.29L21.04 3.29L18.38 10.50L16.27 10.50L13.59 3.29L15.44 3.29L17.33 8.54L19.19 3.29ZM19.19 3.29L21.04 3.29L18.38 10.50L16.27 10.50L13.59 3.29L15.44 3.29L17.33 8.54L19.19 3.29ZM25.66 10.65L25.66 10.65L25.66 10.65Q24.50 10.65 23.74 10.35L23.74 10.35L23.74 10.35Q22.99 10.04 22.53 9.52L22.53 9.52L22.53 9.52Q22.08 9.00 21.90 8.32L21.90 8.32L21.90 8.32Q21.71 7.64 21.71 6.89L21.71 6.89L21.71 6.89Q21.71 6.22 21.90 5.54L21.90 5.54L21.90 5.54Q22.08 4.87 22.48 4.33L22.48 4.33L22.48 4.33Q22.88 3.79 23.52 3.46L23.52 3.46L23.52 3.46Q24.16 3.12 25.09 3.12L25.09 3.12L25.09 3.12Q26.07 3.12 26.72 3.46L26.72 3.46L26.72 3.46Q27.37 3.79 27.76 4.33L27.76 4.33L27.76 4.33Q28.15 4.87 28.32 5.54L28.32 5.54L28.32 5.54Q28.48 6.22 28.48 6.89L28.48 6.89L28.48 7.52L23.52 7.52L23.52 7.52Q23.52 8.27 24.06 8.76L24.06 8.76L24.06 8.76Q24.60 9.25 25.54 9.25L25.54 9.25L25.54 9.25Q26.07 9.25 26.52 9.14L26.52 9.14L26.52 9.14Q26.96 9.03 27.29 8.89L27.29 8.89L27.29 8.89Q27.65 8.74 27.96 8.53L27.96 8.53L27.96 10.09L27.96 10.09Q27.96 10.11 27.78 10.19L27.78 10.19L27.78 10.19Q27.59 10.28 27.29 10.38L27.29 10.38L27.29 10.38Q26.98 10.49 26.56 10.57L26.56 10.57L26.56 10.57Q26.14 10.65 25.66 10.65ZM23.52 6.19L26.70 6.19L26.70 6.19Q26.70 5.95 26.64 5.66L26.64 5.66L26.64 5.66Q26.57 5.38 26.40 5.12L26.40 5.12L26.40 5.12Q26.22 4.87 25.91 4.70L25.91 4.70L25.91 4.70Q25.59 4.54 25.09 4.54L25.09 4.54L25.09 4.54Q24.65 4.54 24.35 4.70L24.35 4.70L24.35 4.70Q24.05 4.87 23.87 5.12L23.87 5.12L23.87 5.12Q23.69 5.38 23.60 5.66L23.60 5.66L23.60 5.66Q23.52 5.95 23.52 6.19L23.52 6.19ZM31.88 8.48L31.88 8.48L31.88 8.48Q31.89 8.72 32.00 8.86L32.00 8.86L32.00 8.86Q32.12 9.00 32.28 9.06L32.28 9.06L32.28 9.06Q32.44 9.13 32.64 9.13L32.64 9.13L32.64 9.13Q32.84 9.14 33.07 9.11L33.07 9.11L33.07 10.56L33.07 10.56Q32.87 10.60 32.73 10.62L32.73 10.62L32.73 10.62Q32.58 10.64 32.47 10.65L32.47 10.65L32.47 10.65Q32.34 10.67 32.26 10.65L32.26 10.65L32.26 10.65Q31.72 10.65 31.30 10.61L31.30 10.61L31.30 10.61Q30.88 10.57 30.59 10.34L30.59 10.34L30.59 10.34Q30.30 10.11 30.14 9.64L30.14 9.64L30.14 9.64Q29.99 9.17 29.99 8.30L29.99 8.30L29.99 1.55L31.88 1.55L31.88 8.48ZM38.29 10.65L38.29 10.65L38.29 10.65Q37.13 10.65 36.37 10.35L36.37 10.35L36.37 10.35Q35.62 10.04 35.16 9.52L35.16 9.52L35.16 9.52Q34.71 9.00 34.52 8.32L34.52 8.32L34.52 8.32Q34.34 7.64 34.34 6.89L34.34 6.89L34.34 6.89Q34.34 6.22 34.52 5.54L34.52 5.54L34.52 5.54Q34.71 4.87 35.11 4.33L35.11 4.33L35.11 4.33Q35.50 3.79 36.15 3.46L36.15 3.46L36.15 3.46Q36.79 3.12 37.72 3.12L37.72 3.12L37.72 3.12Q38.70 3.12 39.35 3.46L39.35 3.46L39.35 3.46Q40.00 3.79 40.39 4.33L40.39 4.33L40.39 4.33Q40.78 4.87 40.94 5.54L40.94 5.54L40.94 5.54Q41.10 6.22 41.10 6.89L41.10 6.89L41.10 7.52L36.15 7.52L36.15 7.52Q36.15 8.27 36.69 8.76L36.69 8.76L36.69 8.76Q37.23 9.25 38.16 9.25L38.16 9.25L38.16 9.25Q38.70 9.25 39.14 9.14L39.14 9.14L39.14 9.14Q39.59 9.03 39.91 8.89L39.91 8.89L39.91 8.89Q40.28 8.74 40.59 8.53L40.59 8.53L40.59 10.09L40.59 10.09Q40.59 10.11 40.40 10.19L40.40 10.19L40.40 10.19Q40.22 10.28 39.91 10.38L39.91 10.38L39.91 10.38Q39.61 10.49 39.19 10.57L39.19 10.57L39.19 10.57Q38.77 10.65 38.29 10.65ZM36.15 6.19L39.33 6.19L39.33 6.19Q39.33 5.95 39.26 5.66L39.26 5.66L39.26 5.66Q39.20 5.38 39.02 5.12L39.02 5.12L39.02 5.12Q38.85 4.87 38.54 4.70L38.54 4.70L38.54 4.70Q38.22 4.54 37.72 4.54L37.72 4.54L37.72 4.54Q37.28 4.54 36.98 4.70L36.98 4.70L36.98 4.70Q36.68 4.87 36.50 5.12L36.50 5.12L36.50 5.12Q36.32 5.38 36.23 5.66L36.23 5.66L36.23 5.66Q36.15 5.95 36.15 6.19L36.15 6.19Z"></path></g><!----><!----></svg>