<svg data-v-d3f97b9e="" xmlns="http://www.w3.org/2000/svg" viewBox="0 0 1018.2212920024238 193"><!----><!----><!----><g data-v-d3f97b9e="" id="8f0f71e5-aaa1-4410-a3d8-470763c2e1e8" fill="white" transform="matrix(11.661806542594483,0,0,11.661806542594483,215.35106351001804,-41.91559489725897)"><path d="M5.53 13.94C6.40 13.94 6.89 13.79 7.62 13.55L7.15 12.04C6.72 12.22 6.38 12.28 6.06 12.28C5.49 12.28 4.94 11.98 4.94 11.10L4.94 3.65L0.87 3.65L0.87 5.28L2.88 5.28L2.88 11.00C2.88 12.81 3.78 13.94 5.53 13.94ZM12.60 13.94C14.43 13.94 16.14 12.59 16.14 10.21C16.14 7.83 14.43 6.45 12.60 6.45C10.77 6.45 9.06 7.83 9.06 10.21C9.06 12.59 10.77 13.94 12.60 13.94ZM12.60 12.28C11.65 12.28 11.17 11.47 11.17 10.21C11.17 8.95 11.65 8.12 12.60 8.12C13.55 8.12 14.03 8.95 14.03 10.21C14.03 11.47 13.55 12.28 12.60 12.28ZM19.85 13.78L22.22 13.78L24.77 6.64L22.79 6.64L21.70 10.05C21.48 10.77 21.29 11.51 21.08 12.25L21.03 12.25C20.82 11.51 20.62 10.77 20.40 10.05L19.31 6.64L17.23 6.64ZM29.82 13.94C30.74 13.94 31.78 13.62 32.56 13.12L31.89 11.87C31.28 12.21 30.73 12.38 30.10 12.38C29.08 12.38 28.22 11.90 28.08 10.81L32.76 10.81C32.79 10.63 32.84 10.25 32.84 9.88C32.84 7.94 31.72 6.45 29.58 6.45C27.73 6.45 25.97 7.87 25.97 10.21C25.97 12.57 27.66 13.94 29.82 13.94ZM28.06 9.44C28.24 8.48 28.88 8.04 29.62 8.04C30.56 8.04 30.98 8.60 30.98 9.44ZM39.13 13.94C40.00 13.94 40.49 13.79 41.22 13.55L40.75 12.04C40.32 12.22 39.98 12.28 39.66 12.28C39.09 12.28 38.54 11.98 38.54 11.10L38.54 3.65L34.47 3.65L34.47 5.28L36.48 5.28L36.48 11.00C36.48 12.81 37.38 13.94 39.13 13.94ZM46.62 13.94C47.54 13.94 48.58 13.62 49.36 13.12L48.69 11.87C48.08 12.21 47.53 12.38 46.90 12.38C45.88 12.38 45.02 11.90 44.88 10.81L49.56 10.81C49.59 10.63 49.64 10.25 49.64 9.88C49.64 7.94 48.52 6.45 46.38 6.45C44.53 6.45 42.77 7.87 42.77 10.21C42.77 12.57 44.46 13.94 46.62 13.94ZM44.86 9.44C45.04 8.48 45.68 8.04 46.42 8.04C47.36 8.04 47.78 8.60 47.78 9.44Z"></path></g><!----><!----><g data-v-d3f97b9e="" id="bbc25840-f01b-45b0-8621-64ecfb50d10f" fill="white" transform="matrix(5.928853263271574,0,0,5.928853263271574,-3.142303018929397,110.41107465139575)"><path d="M4.79 3.91L4.07 3.91L2.79 3.91L2.79 4.19C2.79 4.34 2.88 4.42 3.07 4.44L3.23 4.44C3.32 4.44 3.43 4.45 3.58 4.45C3.74 4.45 3.91 4.47 4.07 4.47L4.07 10.53C4.07 11.00 4.02 11.42 3.92 11.77C3.81 12.12 3.65 12.42 3.46 12.64C3.26 12.87 3.01 13.05 2.73 13.16C2.45 13.27 2.13 13.33 1.78 13.33C1.64 13.33 1.50 13.31 1.40 13.30C1.30 13.29 1.20 13.26 1.12 13.24C1.04 13.23 0.97 13.22 0.91 13.20C0.85 13.19 0.80 13.17 0.76 13.17C0.69 13.17 0.66 13.19 0.63 13.22C0.60 13.24 0.59 13.29 0.57 13.33C0.57 13.40 0.57 13.45 0.56 13.52C0.56 13.59 0.55 13.65 0.53 13.72C0.76 13.79 0.98 13.85 1.19 13.87C1.40 13.90 1.62 13.93 1.83 13.93C2.30 13.93 2.70 13.85 3.07 13.71C3.43 13.55 3.75 13.34 4.00 13.05C4.26 12.75 4.45 12.40 4.59 11.98C4.73 11.56 4.79 11.07 4.79 10.51L4.79 4.47C4.96 4.47 5.11 4.45 5.25 4.45C5.39 4.45 5.49 4.44 5.56 4.44L5.70 4.44C5.88 4.42 5.98 4.34 5.98 4.19L5.98 3.91ZM22.32 3.92L21.60 3.92L20.24 3.92L20.24 4.19C20.24 4.34 20.34 4.42 20.52 4.44L20.69 4.44C20.79 4.44 20.93 4.45 21.10 4.45C21.27 4.45 21.43 4.47 21.60 4.47L21.60 10.04C21.60 10.50 21.53 10.92 21.39 11.33C21.25 11.73 21.06 12.08 20.79 12.38C20.52 12.67 20.22 12.89 19.84 13.06C19.46 13.23 19.04 13.31 18.56 13.31C18.09 13.31 17.65 13.23 17.28 13.06C16.90 12.89 16.58 12.66 16.32 12.36C16.06 12.07 15.88 11.72 15.74 11.33C15.60 10.93 15.53 10.50 15.53 10.04L15.53 4.47C15.69 4.47 15.86 4.45 16.03 4.45C16.20 4.45 16.34 4.44 16.44 4.44L16.60 4.44C16.79 4.42 16.88 4.34 16.88 4.19L16.88 3.92L15.53 3.92L14.81 3.92L13.64 3.92L13.64 4.19C13.64 4.34 13.72 4.42 13.90 4.44L14.04 4.44C14.11 4.44 14.21 4.45 14.35 4.45C14.49 4.45 14.64 4.47 14.81 4.47L14.81 10.04C14.81 10.58 14.90 11.09 15.06 11.56C15.23 12.04 15.48 12.46 15.81 12.81C16.13 13.16 16.53 13.44 17.00 13.64C17.46 13.83 17.99 13.93 18.56 13.93C19.14 13.93 19.66 13.83 20.12 13.64C20.58 13.44 20.99 13.16 21.31 12.81C21.63 12.46 21.88 12.04 22.05 11.56C22.22 11.09 22.32 10.58 22.32 10.04L22.32 4.47C22.48 4.47 22.62 4.45 22.76 4.45C22.90 4.45 23.02 4.44 23.09 4.44L23.21 4.44C23.39 4.42 23.49 4.34 23.49 4.19L23.49 3.92ZM37.24 9.91C37.10 9.65 36.90 9.39 36.67 9.21C36.43 9.03 36.18 8.88 35.88 8.75C35.59 8.62 35.27 8.51 34.96 8.41C34.65 8.32 34.34 8.20 34.05 8.11C33.75 7.99 33.49 7.87 33.25 7.71C33.01 7.56 32.83 7.38 32.69 7.15C32.55 6.93 32.47 6.65 32.47 6.31C32.47 6.06 32.52 5.82 32.62 5.59C32.72 5.35 32.86 5.15 33.04 4.97C33.22 4.79 33.45 4.65 33.73 4.55C34.01 4.45 34.31 4.40 34.68 4.40C35.35 4.40 35.97 4.51 36.53 4.75C36.57 5.54 36.60 5.99 36.60 6.06C36.61 6.29 36.69 6.41 36.89 6.41L37.23 6.41L37.23 4.38C36.34 4.00 35.50 3.81 34.68 3.81C34.22 3.81 33.81 3.88 33.45 4.02C33.08 4.16 32.79 4.34 32.55 4.58C32.31 4.82 32.12 5.08 31.99 5.39C31.86 5.70 31.81 6.02 31.81 6.36C31.81 6.78 31.88 7.14 32.02 7.42C32.16 7.70 32.35 7.92 32.59 8.12C32.83 8.32 33.08 8.46 33.38 8.58C33.67 8.71 33.99 8.82 34.30 8.92C34.61 9.02 34.90 9.11 35.21 9.21C35.50 9.31 35.77 9.45 36.01 9.60C36.25 9.76 36.43 9.94 36.57 10.16C36.71 10.39 36.78 10.68 36.78 11.03C36.78 11.35 36.72 11.66 36.61 11.94C36.50 12.22 36.34 12.46 36.13 12.67C35.92 12.88 35.66 13.05 35.35 13.16C35.04 13.29 34.69 13.33 34.30 13.33C33.52 13.33 32.86 13.20 32.33 12.95C32.31 12.75 32.31 12.54 32.30 12.32C32.28 12.10 32.28 11.91 32.27 11.76C32.26 11.61 32.26 11.52 32.26 11.51C32.24 11.28 32.14 11.17 31.95 11.17L31.61 11.17L31.61 13.02L31.61 13.20L31.61 13.38C32.47 13.75 33.35 13.93 34.27 13.93C34.78 13.93 35.22 13.85 35.62 13.69C36.01 13.54 36.34 13.31 36.61 13.05C36.88 12.78 37.10 12.46 37.24 12.10C37.38 11.73 37.45 11.34 37.45 10.92C37.45 10.51 37.38 10.18 37.24 9.91ZM53.23 3.92L53.03 3.92L45.74 3.92L45.53 3.92L45.43 3.92L45.43 5.96L45.78 5.96C45.98 5.96 46.06 5.85 46.07 5.63C46.07 5.53 46.10 5.17 46.13 4.52L49.03 4.52L49.03 13.26C48.86 13.26 48.72 13.27 48.58 13.27C48.44 13.27 48.33 13.29 48.26 13.29L48.13 13.29C47.95 13.30 47.85 13.38 47.85 13.54L47.85 13.82L49.03 13.82L49.74 13.82L50.93 13.82L50.93 13.54C50.93 13.38 50.83 13.30 50.65 13.29L50.51 13.29C50.44 13.29 50.34 13.27 50.20 13.27C50.06 13.27 49.91 13.26 49.74 13.26L49.74 4.52L52.63 4.52C52.67 5.24 52.68 5.60 52.68 5.63C52.70 5.85 52.79 5.96 52.99 5.96L53.33 5.96L53.33 3.92ZM83.68 4.44C83.86 4.42 83.96 4.34 83.96 4.19L83.96 3.92L82.78 3.92L82.28 3.92C82.21 3.92 82.17 3.92 82.12 3.93C82.08 3.95 82.05 3.99 82.01 4.05L78.12 10.92C78.08 10.99 78.05 11.06 78.02 11.13C77.99 11.20 77.97 11.28 77.94 11.35C77.88 11.20 77.83 11.06 77.76 10.93L73.75 4.05C73.71 3.99 73.68 3.95 73.64 3.93C73.60 3.92 73.56 3.92 73.49 3.92L73.00 3.92L71.81 3.92L71.81 4.19C71.81 4.34 71.90 4.42 72.09 4.44L72.23 4.44C72.30 4.44 72.39 4.45 72.53 4.45C72.67 4.45 72.83 4.47 73.00 4.47L73.00 13.26C72.83 13.26 72.67 13.27 72.53 13.27C72.39 13.27 72.30 13.29 72.23 13.29L72.09 13.29C71.90 13.30 71.81 13.38 71.81 13.54L71.81 13.82L73.00 13.82L73.61 13.82L74.83 13.82L74.83 13.54C74.83 13.38 74.73 13.30 74.55 13.29L74.41 13.29C74.34 13.29 74.23 13.27 74.09 13.27C73.95 13.27 73.78 13.26 73.61 13.26L73.61 5.38C73.61 5.25 73.61 5.12 73.60 4.98L77.60 11.91C77.67 12.04 77.77 12.10 77.88 12.10L77.99 12.10C78.12 12.10 78.20 12.04 78.27 11.91L82.17 4.98C82.15 5.12 82.15 5.25 82.15 5.38L82.15 13.26C81.98 13.26 81.82 13.27 81.68 13.27C81.54 13.27 81.42 13.29 81.35 13.29L81.21 13.29C81.03 13.30 80.93 13.38 80.93 13.54L80.93 13.82L82.15 13.82L82.78 13.82L83.96 13.82L83.96 13.54C83.96 13.38 83.86 13.30 83.68 13.29L83.55 13.29C83.48 13.29 83.37 13.27 83.23 13.27C83.09 13.27 82.95 13.26 82.78 13.26L82.78 4.47C82.95 4.47 83.09 4.45 83.23 4.45C83.37 4.45 83.48 4.44 83.55 4.44ZM101.60 13.22L101.14 13.17L97.36 3.91L96.64 3.91L92.85 13.17L92.40 13.22C92.22 13.23 92.13 13.33 92.13 13.50L92.13 13.82L92.58 13.82L92.88 13.82L93.13 13.82L93.23 13.82L94.54 13.82L94.54 13.50C94.54 13.31 94.43 13.23 94.22 13.22C94.21 13.22 94.18 13.20 94.14 13.20C94.09 13.20 94.04 13.19 93.94 13.19C93.84 13.19 93.72 13.19 93.58 13.17L94.56 10.75L94.63 10.57L99.36 10.57L99.43 10.75L100.41 13.17C100.27 13.19 100.16 13.19 100.06 13.19C99.96 13.19 99.89 13.20 99.85 13.20C99.81 13.20 99.78 13.22 99.76 13.22C99.55 13.23 99.44 13.31 99.44 13.50L99.44 13.82L100.76 13.82L100.86 13.82L101.12 13.82L101.40 13.82L101.86 13.82L101.86 13.50C101.86 13.33 101.78 13.23 101.60 13.22ZM96.80 5.22C96.82 5.14 96.87 5.04 96.89 4.94C96.92 4.84 96.96 4.75 96.99 4.63C97.02 4.75 97.06 4.84 97.09 4.94C97.12 5.04 97.16 5.12 97.19 5.21L99.15 10.04L94.85 10.04ZM118.59 13.29L118.51 13.29L118.33 13.29C118.24 13.29 118.15 13.27 118.05 13.27L114.02 9.06C113.93 8.96 113.86 8.89 113.78 8.83C113.69 8.78 113.61 8.74 113.51 8.71C113.60 8.68 113.67 8.64 113.74 8.58C113.81 8.53 113.89 8.46 113.97 8.36L117.77 4.45L118.03 4.45C118.12 4.45 118.17 4.44 118.22 4.44L118.30 4.44C118.48 4.42 118.58 4.34 118.58 4.19L118.58 3.91L117.60 3.91L117.47 3.91L115.67 3.91L115.67 4.19C115.67 4.34 115.77 4.42 115.95 4.44L116.12 4.44C116.21 4.44 116.34 4.45 116.51 4.45L116.96 4.45L113.29 8.22C113.23 8.27 113.18 8.33 113.13 8.36C113.09 8.39 113.04 8.40 112.98 8.43C112.92 8.44 112.88 8.47 112.81 8.47C112.74 8.48 112.66 8.48 112.57 8.48L111.99 8.48L111.99 4.45C112.15 4.45 112.31 4.44 112.45 4.44C112.59 4.44 112.69 4.42 112.76 4.42L112.90 4.42C113.08 4.41 113.16 4.33 113.16 4.17L113.16 3.91L111.99 3.91L111.27 3.91L110.10 3.91L110.10 4.17C110.10 4.33 110.19 4.41 110.38 4.42L110.50 4.42C110.57 4.42 110.68 4.44 110.82 4.44C110.96 4.44 111.10 4.45 111.27 4.45L111.27 13.26C111.10 13.26 110.96 13.27 110.82 13.27C110.68 13.27 110.57 13.29 110.50 13.29L110.38 13.29C110.19 13.30 110.10 13.38 110.10 13.54L110.10 13.82L111.27 13.82L111.99 13.82L113.16 13.82L113.16 13.54C113.16 13.38 113.08 13.30 112.90 13.29L112.76 13.29C112.69 13.29 112.59 13.27 112.45 13.27C112.31 13.27 112.15 13.26 111.99 13.26L111.99 9.04L112.63 9.04C112.74 9.04 112.84 9.04 112.91 9.06C112.98 9.07 113.04 9.09 113.09 9.11C113.15 9.14 113.20 9.17 113.25 9.21C113.29 9.25 113.33 9.28 113.39 9.34L117.24 13.27C117.10 13.27 116.93 13.29 116.76 13.29L116.35 13.29L116.17 13.29C115.99 13.30 115.89 13.38 115.89 13.54L115.89 13.82L117.77 13.82L117.82 13.82L117.99 13.82L118.58 13.82L118.87 13.82L118.87 13.54C118.87 13.38 118.78 13.30 118.59 13.29ZM128.34 3.92L127.15 3.92L127.15 4.19C127.15 4.34 127.25 4.42 127.43 4.44L127.57 4.44C127.64 4.44 127.74 4.45 127.88 4.45C128.02 4.45 128.17 4.47 128.34 4.47L128.34 13.26C128.17 13.26 128.02 13.27 127.88 13.27C127.74 13.27 127.64 13.29 127.57 13.29L127.43 13.29C127.25 13.30 127.16 13.38 127.16 13.54L127.16 13.82L128.34 13.82L134.27 13.82L134.27 13.22L134.27 11.76L133.92 11.76C133.73 11.76 133.64 11.89 133.63 12.11C133.63 12.14 133.62 12.19 133.62 12.29C133.62 12.39 133.62 12.53 133.60 12.74C133.59 12.95 133.57 13.09 133.57 13.22L129.05 13.22L129.05 9.09L133.00 9.09L133.00 8.51L129.05 8.51L129.05 4.51L133.57 4.51C133.60 5.12 133.63 5.50 133.63 5.63C133.64 5.85 133.73 5.96 133.92 5.96L134.27 5.96L134.27 4.51L134.27 3.92ZM156.04 4.44C156.23 4.42 156.31 4.34 156.31 4.19L156.31 3.91L155.13 3.91L154.42 3.91L153.23 3.91L153.23 4.19C153.23 4.34 153.33 4.42 153.51 4.44L153.65 4.44C153.72 4.44 153.82 4.45 153.96 4.45C154.10 4.45 154.25 4.47 154.42 4.47L154.42 13.26C154.25 13.26 154.10 13.27 153.96 13.27C153.82 13.27 153.72 13.29 153.65 13.29L153.51 13.29C153.33 13.30 153.23 13.38 153.23 13.54L153.23 13.82L154.42 13.82L155.13 13.82L156.31 13.82L156.31 13.54C156.31 13.38 156.23 13.30 156.04 13.29L155.90 13.29C155.83 13.29 155.74 13.27 155.60 13.27C155.46 13.27 155.30 13.26 155.13 13.26L155.13 4.47C155.30 4.47 155.46 4.45 155.60 4.45C155.74 4.45 155.83 4.44 155.90 4.44ZM172.17 3.92L171.98 3.92L164.68 3.92L164.47 3.92L164.37 3.92L164.37 5.96L164.72 5.96C164.92 5.96 165.00 5.85 165.02 5.63C165.02 5.53 165.05 5.17 165.07 4.52L167.97 4.52L167.97 13.26C167.80 13.26 167.66 13.27 167.52 13.27C167.38 13.27 167.27 13.29 167.20 13.29L167.08 13.29C166.89 13.30 166.80 13.38 166.80 13.54L166.80 13.82L167.97 13.82L168.69 13.82L169.88 13.82L169.88 13.54C169.88 13.38 169.78 13.30 169.60 13.29L169.46 13.29C169.39 13.29 169.29 13.27 169.15 13.27C169.01 13.27 168.85 13.26 168.69 13.26L168.69 4.52L171.57 4.52C171.61 5.24 171.63 5.60 171.63 5.63C171.64 5.85 171.74 5.96 171.93 5.96L172.27 5.96L172.27 3.92Z"></path></g></svg>