<svg data-v-d3f97b9e="" xmlns="http://www.w3.org/2000/svg" viewBox="0 0 NaN NaN"><!----><!----><!----><g data-v-d3f97b9e="" id="776b24c7-dbce-4a11-822d-99a54093d9d3" fill="white" transform="matrix(6.586169293214246,0,0,6.586169293214246,-117.61679484154297,-10.208561852010476)"><path d="M2.90 8.48L2.90 8.48L2.90 8.48Q2.91 8.72 3.02 8.86L3.02 8.86L3.02 8.86Q3.14 9.00 3.30 9.06L3.30 9.06L3.30 9.06Q3.46 9.13 3.66 9.13L3.66 9.13L3.66 9.13Q3.86 9.14 4.09 9.11L4.09 9.11L4.09 10.56L4.09 10.56Q3.89 10.60 3.75 10.62L3.75 10.62L3.75 10.62Q3.60 10.64 3.49 10.65L3.49 10.65L3.49 10.65Q3.36 10.67 3.28 10.65L3.28 10.65L3.28 10.65Q2.74 10.65 2.32 10.61L2.32 10.61L2.32 10.61Q1.90 10.57 1.61 10.34L1.61 10.34L1.61 10.34Q1.32 10.11 1.16 9.64L1.16 9.64L1.16 9.64Q1.01 9.17 1.01 8.30L1.01 8.30L1.01 1.55L2.90 1.55L2.90 8.48ZM9.13 3.12L9.13 3.12L9.13 3.12Q9.69 3.12 10.35 3.29L10.35 3.29L10.35 3.29Q11.00 3.46 11.58 3.88L11.58 3.88L11.58 3.88Q12.15 4.30 12.54 5.03L12.54 5.03L12.54 5.03Q12.92 5.75 12.92 6.89L12.92 6.89L12.92 6.89Q12.92 8.02 12.54 8.75L12.54 8.75L12.54 8.75Q12.15 9.48 11.58 9.90L11.58 9.90L11.58 9.90Q11.00 10.32 10.35 10.49L10.35 10.49L10.35 10.49Q9.69 10.65 9.13 10.65L9.13 10.65L9.13 10.65Q8.57 10.65 7.91 10.49L7.91 10.49L7.91 10.49Q7.25 10.32 6.69 9.90L6.69 9.90L6.69 9.90Q6.12 9.48 5.74 8.75L5.74 8.75L5.74 8.75Q5.36 8.02 5.36 6.89L5.36 6.89L5.36 6.89Q5.36 5.75 5.74 5.03L5.74 5.03L5.74 5.03Q6.12 4.30 6.69 3.88L6.69 3.88L6.69 3.88Q7.25 3.46 7.91 3.29L7.91 3.29L7.91 3.29Q8.57 3.12 9.13 3.12ZM9.13 9.25L9.13 9.25L9.13 9.25Q9.91 9.25 10.44 8.64L10.44 8.64L10.44 8.64Q10.96 8.02 10.96 6.89L10.96 6.89L10.96 6.89Q10.96 5.75 10.44 5.14L10.44 5.14L10.44 5.14Q9.91 4.54 9.13 4.54L9.13 4.54L9.13 4.54Q8.37 4.54 7.85 5.14L7.85 5.14L7.85 5.14Q7.34 5.75 7.34 6.89L7.34 6.89L7.34 6.89Q7.34 7.45 7.48 7.89L7.48 7.89L7.48 7.89Q7.62 8.33 7.85 8.63L7.85 8.63L7.85 8.63Q8.09 8.93 8.42 9.09L8.42 9.09L8.42 9.09Q8.75 9.25 9.13 9.25ZM19.19 3.29L21.04 3.29L18.38 10.50L16.27 10.50L13.59 3.29L15.44 3.29L17.33 8.54L19.19 3.29ZM19.19 3.29L21.04 3.29L18.38 10.50L16.27 10.50L13.59 3.29L15.44 3.29L17.33 8.54L19.19 3.29ZM25.66 10.65L25.66 10.65L25.66 10.65Q24.50 10.65 23.74 10.35L23.74 10.35L23.74 10.35Q22.99 10.04 22.53 9.52L22.53 9.52L22.53 9.52Q22.08 9.00 21.90 8.32L21.90 8.32L21.90 8.32Q21.71 7.64 21.71 6.89L21.71 6.89L21.71 6.89Q21.71 6.22 21.90 5.54L21.90 5.54L21.90 5.54Q22.08 4.87 22.48 4.33L22.48 4.33L22.48 4.33Q22.88 3.79 23.52 3.46L23.52 3.46L23.52 3.46Q24.16 3.12 25.09 3.12L25.09 3.12L25.09 3.12Q26.07 3.12 26.72 3.46L26.72 3.46L26.72 3.46Q27.37 3.79 27.76 4.33L27.76 4.33L27.76 4.33Q28.15 4.87 28.32 5.54L28.32 5.54L28.32 5.54Q28.48 6.22 28.48 6.89L28.48 6.89L28.48 7.52L23.52 7.52L23.52 7.52Q23.52 8.27 24.06 8.76L24.06 8.76L24.06 8.76Q24.60 9.25 25.54 9.25L25.54 9.25L25.54 9.25Q26.07 9.25 26.52 9.14L26.52 9.14L26.52 9.14Q26.96 9.03 27.29 8.89L27.29 8.89L27.29 8.89Q27.65 8.74 27.96 8.53L27.96 8.53L27.96 10.09L27.96 10.09Q27.96 10.11 27.78 10.19L27.78 10.19L27.78 10.19Q27.59 10.28 27.29 10.38L27.29 10.38L27.29 10.38Q26.98 10.49 26.56 10.57L26.56 10.57L26.56 10.57Q26.14 10.65 25.66 10.65ZM23.52 6.19L26.70 6.19L26.70 6.19Q26.70 5.95 26.64 5.66L26.64 5.66L26.64 5.66Q26.57 5.38 26.40 5.12L26.40 5.12L26.40 5.12Q26.22 4.87 25.91 4.70L25.91 4.70L25.91 4.70Q25.59 4.54 25.09 4.54L25.09 4.54L25.09 4.54Q24.65 4.54 24.35 4.70L24.35 4.70L24.35 4.70Q24.05 4.87 23.87 5.12L23.87 5.12L23.87 5.12Q23.69 5.38 23.60 5.66L23.60 5.66L23.60 5.66Q23.52 5.95 23.52 6.19L23.52 6.19ZM31.88 8.48L31.88 8.48L31.88 8.48Q31.89 8.72 32.00 8.86L32.00 8.86L32.00 8.86Q32.12 9.00 32.28 9.06L32.28 9.06L32.28 9.06Q32.44 9.13 32.64 9.13L32.64 9.13L32.64 9.13Q32.84 9.14 33.07 9.11L33.07 9.11L33.07 10.56L33.07 10.56Q32.87 10.60 32.73 10.62L32.73 10.62L32.73 10.62Q32.58 10.64 32.47 10.65L32.47 10.65L32.47 10.65Q32.34 10.67 32.26 10.65L32.26 10.65L32.26 10.65Q31.72 10.65 31.30 10.61L31.30 10.61L31.30 10.61Q30.88 10.57 30.59 10.34L30.59 10.34L30.59 10.34Q30.30 10.11 30.14 9.64L30.14 9.64L30.14 9.64Q29.99 9.17 29.99 8.30L29.99 8.30L29.99 1.55L31.88 1.55L31.88 8.48ZM38.29 10.65L38.29 10.65L38.29 10.65Q37.13 10.65 36.37 10.35L36.37 10.35L36.37 10.35Q35.62 10.04 35.16 9.52L35.16 9.52L35.16 9.52Q34.71 9.00 34.52 8.32L34.52 8.32L34.52 8.32Q34.34 7.64 34.34 6.89L34.34 6.89L34.34 6.89Q34.34 6.22 34.52 5.54L34.52 5.54L34.52 5.54Q34.71 4.87 35.11 4.33L35.11 4.33L35.11 4.33Q35.50 3.79 36.15 3.46L36.15 3.46L36.15 3.46Q36.79 3.12 37.72 3.12L37.72 3.12L37.72 3.12Q38.70 3.12 39.35 3.46L39.35 3.46L39.35 3.46Q40.00 3.79 40.39 4.33L40.39 4.33L40.39 4.33Q40.78 4.87 40.94 5.54L40.94 5.54L40.94 5.54Q41.10 6.22 41.10 6.89L41.10 6.89L41.10 7.52L36.15 7.52L36.15 7.52Q36.15 8.27 36.69 8.76L36.69 8.76L36.69 8.76Q37.23 9.25 38.16 9.25L38.16 9.25L38.16 9.25Q38.70 9.25 39.14 9.14L39.14 9.14L39.14 9.14Q39.59 9.03 39.91 8.89L39.91 8.89L39.91 8.89Q40.28 8.74 40.59 8.53L40.59 8.53L40.59 10.09L40.59 10.09Q40.59 10.11 40.40 10.19L40.40 10.19L40.40 10.19Q40.22 10.28 39.91 10.38L39.91 10.38L39.91 10.38Q39.61 10.49 39.19 10.57L39.19 10.57L39.19 10.57Q38.77 10.65 38.29 10.65ZM36.15 6.19L39.33 6.19L39.33 6.19Q39.33 5.95 39.26 5.66L39.26 5.66L39.26 5.66Q39.20 5.38 39.02 5.12L39.02 5.12L39.02 5.12Q38.85 4.87 38.54 4.70L38.54 4.70L38.54 4.70Q38.22 4.54 37.72 4.54L37.72 4.54L37.72 4.54Q37.28 4.54 36.98 4.70L36.98 4.70L36.98 4.70Q36.68 4.87 36.50 5.12L36.50 5.12L36.50 5.12Q36.32 5.38 36.23 5.66L36.23 5.66L36.23 5.66Q36.15 5.95 36.15 6.19L36.15 6.19Z"></path></g><!----><g data-v-d3f97b9e="" id="c7bc49a5-074f-4042-9d5c-2273e9903268" transform="matrix(Infinity,0,0,Infinity,0,0)" stroke="none" fill="white"></g><!----><g data-v-d3f97b9e="" id="2c183b13-fa18-4976-be99-36bb72b464c8" fill="white" transform="matrix(1.228447956527297,0,0,1.228447956527297,-19.704778141950413,55.94612082852404)"><path d="M0.28 3.71L0.28 3.71L0.28 3.71Q0.28 3.50 0.53 3.50L0.53 3.50L0.53 3.50Q0.62 3.50 0.92 3.53L0.92 3.53L0.92 3.53Q1.22 3.56 1.27 3.56L1.27 3.56L1.27 3.56Q1.48 3.56 1.85 3.54L1.85 3.54L1.85 3.54Q2.21 3.53 2.32 3.53L2.32 3.53L2.32 3.53Q2.59 3.53 2.66 3.72L2.66 3.72L2.66 3.72Q2.83 4.09 3.26 5.03L3.26 5.03L3.26 5.03Q3.70 5.98 3.96 6.54L3.96 6.54L3.96 6.54Q4.21 7.10 4.62 7.97L4.62 7.97L4.62 7.97Q5.03 8.83 5.28 9.37L5.28 9.37L5.28 9.37Q5.53 9.91 5.80 10.46L5.80 10.46L5.80 10.46Q6.08 11.00 6.22 11.26L6.22 11.26L6.22 11.26Q6.37 11.52 6.41 11.52L6.41 11.52L6.41 11.52Q6.45 11.52 6.50 11.47L6.50 11.47L6.50 11.47Q6.55 11.42 6.60 11.34L6.60 11.34L6.60 11.34Q6.65 11.26 6.69 11.17L6.69 11.17L6.69 11.17Q6.72 11.09 6.78 10.96L6.78 10.96L6.78 10.96Q6.85 10.82 6.87 10.75L6.87 10.75L8.68 7.03L8.68 7.03Q8.99 6.40 9.23 5.89L9.23 5.89L9.23 5.89Q9.46 5.39 9.60 5.08L9.60 5.08L9.60 5.08Q9.74 4.77 9.84 4.55L9.84 4.55L9.84 4.55Q9.94 4.33 9.99 4.21L9.99 4.21L9.99 4.21Q10.04 4.10 10.06 4.04L10.06 4.04L10.06 4.04Q10.08 3.98 10.09 3.94L10.09 3.94L10.09 3.94Q10.11 3.91 10.12 3.88L10.12 3.88L10.12 3.88Q10.14 3.85 10.17 3.75L10.17 3.75L10.17 3.75Q10.21 3.65 10.24 3.62L10.24 3.62L10.24 3.62Q10.28 3.58 10.38 3.54L10.38 3.54L10.38 3.54Q10.49 3.50 10.65 3.50L10.65 3.50L10.65 3.50Q10.92 3.50 11.15 3.51L11.15 3.51L11.15 3.51Q11.38 3.53 11.86 3.53L11.86 3.53L11.86 3.53Q12.10 3.53 12.10 3.71L12.10 3.71L12.10 3.71Q12.10 3.85 12.01 3.91L12.01 3.91L12.01 3.91Q11.91 3.98 11.63 4.02L11.63 4.02L11.63 4.02Q11.28 4.06 11.14 4.37L11.14 4.37L11.14 4.37Q11.00 4.68 11.00 5.54L11.00 5.54L11.00 5.54Q11.00 7.43 11.09 8.97L11.09 8.97L11.09 8.97Q11.17 10.50 11.17 10.89L11.17 10.89L11.17 10.89Q11.17 12.29 11.40 12.68L11.40 12.68L11.40 12.68Q11.62 13.06 12.33 13.06L12.33 13.06L12.33 13.06Q12.43 13.06 12.51 13.13L12.51 13.13L12.51 13.13Q12.59 13.20 12.59 13.26L12.59 13.26L12.59 13.26Q12.59 13.34 12.57 13.38L12.57 13.38L12.57 13.38Q12.56 13.43 12.52 13.45L12.52 13.45L12.52 13.45Q12.47 13.48 12.43 13.48L12.43 13.48L12.43 13.48Q12.39 13.48 12.28 13.48L12.28 13.48L12.28 13.48Q11.86 13.48 11.45 13.45L11.45 13.45L11.45 13.45Q11.05 13.43 10.85 13.43L10.85 13.43L10.85 13.43Q10.46 13.43 10.04 13.46L10.04 13.46L10.04 13.46Q9.62 13.50 9.39 13.50L9.39 13.50L9.39 13.50Q9.14 13.50 9.14 13.30L9.14 13.30L9.14 13.30Q9.14 13.17 9.25 13.12L9.25 13.12L9.25 13.12Q9.37 13.06 9.51 13.05L9.51 13.05L9.51 13.05Q9.66 13.03 9.82 12.87L9.82 12.87L9.82 12.87Q9.98 12.71 10.05 12.39L10.05 12.39L10.05 12.39Q10.11 12.11 10.11 11.49L10.11 11.49L10.11 11.49Q10.11 11.05 10.09 10.42L10.09 10.42L10.09 10.42Q10.07 9.79 10.04 9.19L10.04 9.19L10.04 9.19Q10.01 8.60 9.98 8.07L9.98 8.07L9.98 8.07Q9.95 7.55 9.94 7.21L9.94 7.21L9.91 6.87L9.91 6.87Q9.91 6.27 9.79 6.27L9.79 6.27L9.79 6.27Q9.77 6.27 9.74 6.29L9.74 6.29L9.74 6.29Q9.72 6.30 9.70 6.33L9.70 6.33L9.70 6.33Q9.67 6.36 9.65 6.38L9.65 6.38L9.65 6.38Q9.62 6.41 9.59 6.47L9.59 6.47L9.59 6.47Q9.56 6.54 9.53 6.58L9.53 6.58L9.53 6.58Q9.51 6.62 9.46 6.70L9.46 6.70L9.46 6.70Q9.42 6.78 9.39 6.83L9.39 6.83L9.39 6.83Q9.37 6.89 9.32 6.99L9.32 6.99L9.32 6.99Q9.27 7.08 9.24 7.15L9.24 7.15L7.29 11.09L7.29 11.09Q6.96 11.77 6.58 12.56L6.58 12.56L6.58 12.56Q6.33 13.09 6.27 13.18L6.27 13.18L6.27 13.18Q6.22 13.27 6.13 13.27L6.13 13.27L6.13 13.27Q6.01 13.27 5.92 13.15L5.92 13.15L5.92 13.15Q5.84 13.03 5.67 12.63L5.67 12.63L5.67 12.63Q5.50 12.22 5.38 11.96L5.38 11.96L5.38 11.96Q2.81 6.75 2.74 6.65L2.74 6.65L2.74 6.65Q2.70 6.59 2.66 6.59L2.66 6.59L2.66 6.59Q2.55 6.59 2.55 7.15L2.55 7.15L2.55 7.15Q2.53 8.25 2.48 9.31L2.48 9.31L2.48 9.31Q2.42 10.37 2.42 10.85L2.42 10.85L2.42 11.48L2.42 11.48Q2.42 11.84 2.44 12.04L2.44 12.04L2.44 12.04Q2.46 12.24 2.56 12.49L2.56 12.49L2.56 12.49Q2.65 12.75 2.88 12.89L2.88 12.89L2.88 12.89Q3.12 13.03 3.50 13.08L3.50 13.08L3.50 13.08Q3.57 13.08 3.63 13.13L3.63 13.13L3.63 13.13Q3.70 13.17 3.70 13.23L3.70 13.23L3.70 13.23Q3.70 13.38 3.65 13.43L3.65 13.43L3.65 13.43Q3.61 13.48 3.49 13.48L3.49 13.48L3.49 13.48Q3.21 13.48 2.65 13.45L2.65 13.45L2.65 13.45Q2.09 13.43 2.03 13.43L2.03 13.43L2.03 13.43Q2.00 13.43 1.62 13.45L1.62 13.45L1.62 13.45Q1.25 13.47 0.88 13.47L0.88 13.47L0.88 13.47Q0.77 13.47 0.72 13.45L0.72 13.45L0.72 13.45Q0.67 13.44 0.63 13.39L0.63 13.39L0.63 13.39Q0.59 13.34 0.59 13.24L0.59 13.24L0.59 13.24Q0.59 13.13 0.71 13.09L0.71 13.09L0.71 13.09Q0.84 13.05 1.00 13.04L1.00 13.04L1.00 13.04Q1.16 13.03 1.36 12.82L1.36 12.82L1.36 12.82Q1.55 12.60 1.65 12.18L1.65 12.18L1.65 12.18Q1.72 11.87 1.82 9.74L1.82 9.74L1.82 9.74Q1.92 7.62 1.92 6.59L1.92 6.59L1.92 6.59Q1.92 5.19 1.65 4.66L1.65 4.66L1.65 4.66Q1.37 4.13 0.46 3.92L0.46 3.92L0.46 3.92Q0.28 3.88 0.28 3.71ZM20.15 13.33L20.15 13.33L20.15 13.33Q20.15 13.13 20.36 13.06L20.36 13.06L20.36 13.06Q20.80 12.89 21.14 12.31L21.14 12.31L21.14 12.31Q21.48 11.73 22.81 8.83L22.81 8.83L22.81 8.83Q24.18 5.87 25.23 3.63L25.23 3.63L25.23 3.63Q25.33 3.42 25.40 3.36L25.40 3.36L25.40 3.36Q25.48 3.30 25.65 3.30L25.65 3.30L25.65 3.30Q25.77 3.30 25.82 3.36L25.82 3.36L25.82 3.36Q25.86 3.42 26.00 3.82L26.00 3.82L26.00 3.82Q26.08 4.06 26.14 4.23L26.14 4.23L26.14 4.23Q26.21 4.40 26.35 4.77L26.35 4.77L26.35 4.77Q26.49 5.15 26.66 5.56L26.66 5.56L26.66 5.56Q27.10 6.66 28.20 9.22L28.20 9.22L28.20 9.22Q29.30 11.77 29.40 11.98L29.40 11.98L29.40 11.98Q29.64 12.46 29.93 12.71L29.93 12.71L29.93 12.71Q30.23 12.95 30.44 12.97L30.44 12.97L30.44 12.97Q30.66 12.99 30.81 13.04L30.81 13.04L30.81 13.04Q30.95 13.09 30.95 13.26L30.95 13.26L30.95 13.26Q30.95 13.47 30.58 13.47L30.58 13.47L30.58 13.47Q30.42 13.47 29.97 13.43L29.97 13.43L29.97 13.43Q29.53 13.38 29.32 13.38L29.32 13.38L29.32 13.38Q29.05 13.38 28.63 13.41L28.63 13.41L28.63 13.41Q28.21 13.44 28.01 13.44L28.01 13.44L28.01 13.44Q27.58 13.44 27.46 13.40L27.46 13.40L27.46 13.40Q27.34 13.37 27.34 13.24L27.34 13.24L27.34 13.24Q27.34 13.15 27.45 13.08L27.45 13.08L27.45 13.08Q27.57 13.02 27.69 13.00L27.69 13.00L27.69 13.00Q27.82 12.98 27.93 12.87L27.93 12.87L27.93 12.87Q28.04 12.77 28.04 12.59L28.04 12.59L28.04 12.59Q28.04 12.28 27.69 11.33L27.69 11.33L27.69 11.33Q27.34 10.37 27.10 9.93L27.10 9.93L27.10 9.93Q26.98 9.69 26.53 9.69L26.53 9.69L26.53 9.69Q26.46 9.69 25.91 9.70L25.91 9.70L25.91 9.70Q25.37 9.72 24.84 9.72L24.84 9.72L24.09 9.72L24.09 9.72Q23.46 9.72 23.30 9.79L23.30 9.79L23.30 9.79Q23.14 9.86 23.02 10.12L23.02 10.12L23.02 10.12Q22.93 10.30 22.74 10.70L22.74 10.70L22.74 10.70Q22.54 11.10 22.47 11.26L22.47 11.26L22.47 11.26Q22.40 11.41 22.30 11.65L22.30 11.65L22.30 11.65Q22.19 11.90 22.16 12.05L22.16 12.05L22.16 12.05Q22.12 12.19 22.12 12.31L22.12 12.31L22.12 12.31Q22.12 12.63 22.28 12.80L22.28 12.80L22.28 12.80Q22.44 12.96 22.64 12.98L22.64 12.98L22.64 12.98Q22.83 13.01 23.00 13.06L23.00 13.06L23.00 13.06Q23.16 13.12 23.16 13.26L23.16 13.26L23.16 13.26Q23.16 13.36 23.11 13.40L23.11 13.40L23.11 13.40Q23.07 13.45 22.92 13.45L22.92 13.45L22.92 13.45Q22.83 13.45 22.43 13.45L22.43 13.45L22.43 13.45Q22.04 13.44 21.76 13.44L21.76 13.44L21.76 13.44Q21.45 13.44 21.06 13.47L21.06 13.47L21.06 13.47Q20.68 13.50 20.55 13.50L20.55 13.50L20.55 13.50Q20.15 13.50 20.15 13.33ZM23.66 8.71L23.66 8.71L23.66 8.71Q23.66 8.89 23.79 8.93L23.79 8.93L23.79 8.93Q23.91 8.97 24.37 8.97L24.37 8.97L24.81 8.97L26.14 8.96L26.14 8.96Q26.68 8.96 26.68 8.74L26.68 8.74L26.68 8.74Q26.68 8.55 26.00 7.01L26.00 7.01L26.00 7.01Q25.31 5.46 25.13 5.46L25.13 5.46L25.13 5.46Q25.00 5.46 24.33 7.01L24.33 7.01L24.33 7.01Q23.66 8.55 23.66 8.71ZM38.51 3.71L38.51 3.71L38.51 3.71Q38.51 3.53 38.91 3.53L38.91 3.53L38.91 3.53Q39.05 3.53 39.55 3.54L39.55 3.54L39.55 3.54Q40.05 3.56 40.49 3.56L40.49 3.56L40.49 3.56Q40.74 3.56 40.95 3.54L40.95 3.54L40.95 3.54Q41.16 3.53 41.69 3.53L41.69 3.53L41.69 3.53Q41.93 3.53 41.93 3.71L41.93 3.71L41.93 3.71Q41.93 3.77 41.86 3.81L41.86 3.81L41.86 3.81Q41.79 3.85 41.66 3.91L41.66 3.91L41.66 3.91Q41.52 3.96 41.44 4.00L41.44 4.00L41.44 4.00Q41.01 4.26 41.01 5.71L41.01 5.71L41.01 5.71Q41.01 6.47 40.98 7.17L40.98 7.17L40.98 7.17Q40.96 7.87 40.96 7.90L40.96 7.90L40.96 7.90Q40.96 8.19 41.09 8.19L41.09 8.19L41.09 8.19Q41.19 8.19 42.21 7.36L42.21 7.36L42.21 7.36Q43.23 6.52 44.24 5.55L44.24 5.55L44.24 5.55Q45.25 4.58 45.25 4.27L45.25 4.27L45.25 4.27Q45.25 4.19 45.21 4.12L45.21 4.12L45.21 4.12Q45.16 4.06 45.07 4.02L45.07 4.02L45.07 4.02Q44.97 3.98 44.90 3.96L44.90 3.96L44.90 3.96Q44.83 3.93 44.70 3.91L44.70 3.91L44.70 3.91Q44.58 3.89 44.55 3.88L44.55 3.88L44.55 3.88Q44.39 3.85 44.39 3.68L44.39 3.68L44.39 3.68Q44.39 3.53 44.62 3.53L44.62 3.53L44.62 3.53Q44.65 3.53 44.77 3.54L44.77 3.54L44.77 3.54Q44.88 3.54 44.97 3.54L44.97 3.54L44.97 3.54Q45.00 3.54 45.30 3.56L45.30 3.56L45.30 3.56Q45.60 3.57 45.81 3.57L45.81 3.57L47.54 3.53L47.54 3.53Q47.82 3.53 47.82 3.71L47.82 3.71L47.82 3.71Q47.82 3.81 47.74 3.86L47.74 3.86L47.74 3.86Q47.66 3.91 47.42 3.98L47.42 3.98L47.42 3.98Q47.18 4.05 47.01 4.12L47.01 4.12L47.01 4.12Q46.94 4.14 46.33 4.54L46.33 4.54L46.33 4.54Q46.20 4.62 44.74 5.84L44.74 5.84L44.74 5.84Q43.69 6.73 42.31 7.90L42.31 7.90L42.15 8.09L42.15 8.09Q42.15 8.16 42.31 8.32L42.31 8.32L42.31 8.32Q42.97 8.97 44.02 10.01L44.02 10.01L44.02 10.01Q45.96 11.94 46.54 12.42L46.54 12.42L46.54 12.42Q47.11 12.91 47.63 12.99L47.63 12.99L47.63 12.99Q48.03 13.05 48.09 13.16L48.09 13.16L48.09 13.16Q48.10 13.19 48.10 13.24L48.10 13.24L48.10 13.24Q48.10 13.37 47.98 13.40L47.98 13.40L47.98 13.40Q47.87 13.43 47.29 13.43L47.29 13.43L45.93 13.43L45.93 13.43Q45.84 13.43 45.79 13.41L45.79 13.41L45.79 13.41Q45.74 13.40 45.69 13.37L45.69 13.37L45.69 13.37Q45.64 13.34 45.56 13.25L45.56 13.25L45.56 13.25Q45.49 13.16 45.38 13.04L45.38 13.04L45.38 13.04Q45.28 12.92 45.06 12.68L45.06 12.68L45.06 12.68Q44.84 12.43 44.58 12.17L44.58 12.17L44.58 12.17Q41.61 9.16 41.45 9.03L41.45 9.03L41.45 9.03Q41.30 8.90 41.19 8.90L41.19 8.90L41.19 8.90Q40.99 8.90 40.99 9.28L40.99 9.28L40.99 9.32L40.99 9.32Q40.99 9.37 41.00 9.45L41.00 9.45L41.00 9.45Q41.01 9.53 41.01 9.65L41.01 9.65L41.01 9.65Q41.01 9.76 41.01 9.95L41.01 9.95L41.01 9.95Q41.01 10.14 41.01 10.36L41.01 10.36L41.01 10.36Q41.01 12.19 41.22 12.57L41.22 12.57L41.22 12.57Q41.48 13.02 42.15 13.02L42.15 13.02L42.15 13.02Q42.18 13.02 42.21 13.03L42.21 13.03L42.21 13.03Q42.24 13.03 42.27 13.03L42.27 13.03L42.27 13.03Q42.36 13.03 42.46 13.08L42.46 13.08L42.46 13.08Q42.56 13.13 42.56 13.19L42.56 13.19L42.56 13.19Q42.56 13.34 42.48 13.39L42.48 13.39L42.48 13.39Q42.41 13.44 42.21 13.44L42.21 13.44L42.21 13.44Q41.79 13.44 41.43 13.41L41.43 13.41L41.43 13.41Q41.08 13.38 40.88 13.38L40.88 13.38L40.88 13.38Q40.49 13.38 40.03 13.42L40.03 13.42L40.03 13.42Q39.56 13.45 39.34 13.45L39.34 13.45L39.34 13.45Q38.84 13.45 38.84 13.30L38.84 13.30L38.84 13.24L38.84 13.24Q38.84 13.15 38.97 13.11L38.97 13.11L38.97 13.11Q39.10 13.08 39.30 13.02L39.30 13.02L39.30 13.02Q39.49 12.96 39.61 12.85L39.61 12.85L39.61 12.85Q39.80 12.66 39.85 11.95L39.85 11.95L39.85 11.95Q39.90 11.24 39.90 9.69L39.90 9.69L39.90 7.81L39.90 7.81Q39.90 7.63 39.89 7.12L39.89 7.12L39.89 7.12Q39.87 6.61 39.87 6.30L39.87 6.30L39.87 5.66L39.87 5.66Q39.87 4.94 39.83 4.63L39.83 4.63L39.83 4.63Q39.79 4.30 39.47 4.12L39.47 4.12L39.47 4.12Q39.16 3.93 38.81 3.92L38.81 3.92L38.81 3.92Q38.51 3.91 38.51 3.71ZM55.65 3.65L55.65 3.65L55.65 3.65Q55.65 3.46 56.04 3.46L56.04 3.46L56.04 3.46Q56.10 3.46 56.22 3.47L56.22 3.47L56.22 3.47Q56.35 3.49 56.42 3.49L56.42 3.49L56.42 3.49Q56.46 3.49 57.74 3.52L57.74 3.52L57.74 3.52Q59.01 3.56 59.84 3.56L59.84 3.56L59.84 3.56Q60.13 3.56 61.29 3.53L61.29 3.53L61.29 3.53Q62.44 3.50 62.64 3.50L62.64 3.50L62.64 3.50Q62.90 3.50 62.90 3.82L62.90 3.82L62.90 3.82Q62.90 3.91 62.82 4.38L62.82 4.38L62.82 4.38Q62.73 4.84 62.73 5.25L62.73 5.25L62.73 5.25Q62.73 5.38 62.66 5.47L62.66 5.47L62.66 5.47Q62.59 5.56 62.51 5.56L62.51 5.56L62.51 5.56Q62.30 5.56 62.30 5.26L62.30 5.26L62.30 5.26Q62.30 4.89 62.06 4.58L62.06 4.58L62.06 4.58Q61.82 4.27 61.47 4.26L61.47 4.26L61.47 4.26Q60.21 4.16 59.54 4.16L59.54 4.16L59.18 4.16L59.18 4.16Q58.45 4.16 58.33 4.26L58.33 4.26L58.33 4.26Q58.21 4.37 58.18 5.01L58.18 5.01L58.18 5.01Q58.13 6.02 58.13 7.35L58.13 7.35L58.13 7.35Q58.13 8.05 58.39 8.06L58.39 8.06L58.74 8.06L59.33 8.06L59.77 8.06L59.77 8.06Q60.61 8.06 60.89 8.01L60.89 8.01L60.89 8.01Q61.17 7.95 61.39 7.80L61.39 7.80L61.39 7.80Q61.66 7.62 61.71 7.28L61.71 7.28L61.71 7.28Q61.75 7.04 61.91 7.04L61.91 7.04L61.91 7.04Q62.03 7.04 62.06 7.08L62.06 7.08L62.06 7.08Q62.09 7.13 62.09 7.27L62.09 7.27L62.09 7.27Q62.09 7.36 62.03 7.91L62.03 7.91L62.03 7.91Q61.98 8.46 61.98 8.74L61.98 8.74L61.98 8.74Q61.98 9.00 62.00 9.24L62.00 9.24L62.00 9.24Q62.02 9.48 62.02 9.59L62.02 9.59L62.02 9.59Q62.02 9.94 61.92 9.94L61.92 9.94L61.92 9.94Q61.71 9.94 61.61 9.60L61.61 9.60L61.61 9.60Q61.42 9.02 61.26 8.92L61.26 8.92L61.26 8.92Q60.97 8.72 59.92 8.72L59.92 8.72L59.92 8.72Q59.50 8.72 59.24 8.72L59.24 8.72L59.24 8.72Q58.98 8.72 58.91 8.71L58.91 8.71L58.91 8.71Q58.83 8.71 58.78 8.71L58.78 8.71L58.78 8.71Q58.73 8.71 58.69 8.71L58.69 8.71L58.69 8.71Q58.11 8.71 58.11 8.97L58.11 8.97L58.11 8.97Q58.11 9.38 58.10 9.99L58.10 9.99L58.10 9.99Q58.09 10.60 58.09 10.99L58.09 10.99L58.09 11.55L58.09 11.55Q58.09 12.56 58.42 12.66L58.42 12.66L58.42 12.66Q58.77 12.77 59.02 12.77L59.02 12.77L59.02 12.77Q60.07 12.77 60.87 12.67L60.87 12.67L60.87 12.67Q61.66 12.57 62.06 12.42L62.06 12.42L62.06 12.42Q62.45 12.28 62.72 12.10L62.72 12.10L62.72 12.10Q62.99 11.93 63.06 11.78L63.06 11.78L63.06 11.78Q63.14 11.63 63.22 11.54L63.22 11.54L63.22 11.54Q63.29 11.44 63.38 11.44L63.38 11.44L63.38 11.44Q63.55 11.44 63.55 11.68L63.55 11.68L63.55 11.68Q63.55 12.28 62.94 12.89L62.94 12.89L62.94 12.89Q62.34 13.51 61.89 13.51L61.89 13.51L61.89 13.51Q60.89 13.51 59.62 13.44L59.62 13.44L59.62 13.44Q58.35 13.37 58.04 13.37L58.04 13.37L58.04 13.37Q57.65 13.37 57.06 13.43L57.06 13.43L57.06 13.43Q56.48 13.50 56.14 13.50L56.14 13.50L56.14 13.50Q55.85 13.50 55.85 13.36L55.85 13.36L55.85 13.36Q55.85 13.23 55.85 13.19L55.85 13.19L55.85 13.19Q55.85 13.15 55.89 13.12L55.89 13.12L55.89 13.12Q55.93 13.09 55.98 13.08L55.98 13.08L55.98 13.08Q56.03 13.08 56.16 13.03L56.16 13.03L56.16 13.03Q56.29 12.99 56.45 12.92L56.45 12.92L56.45 12.92Q56.78 12.75 56.89 12.26L56.89 12.26L56.89 12.26Q56.99 11.77 56.99 10.21L56.99 10.21L56.99 8.47L56.99 8.47Q56.99 8.09 57.02 7.29L57.02 7.29L57.02 7.29Q57.04 6.50 57.04 6.05L57.04 6.05L57.04 6.05Q57.04 5.67 57.01 4.77L57.01 4.77L57.01 4.77Q56.99 4.37 56.66 4.14L56.66 4.14L56.66 4.14Q56.32 3.92 55.87 3.91L55.87 3.91L55.87 3.91Q55.65 3.91 55.65 3.65ZM81.09 3.71L81.09 3.71L81.09 3.71Q81.09 3.46 81.47 3.46L81.47 3.46L81.47 3.46Q81.52 3.46 81.65 3.47L81.65 3.47L81.65 3.47Q81.77 3.49 81.84 3.49L81.84 3.49L81.84 3.49Q81.98 3.49 82.37 3.51L82.37 3.51L82.37 3.51Q82.75 3.54 83.06 3.54L83.06 3.54L83.06 3.54Q83.50 3.54 83.99 3.51L83.99 3.51L83.99 3.51Q84.48 3.49 84.53 3.49L84.53 3.49L84.53 3.49Q84.77 3.49 84.77 3.63L84.77 3.63L84.77 3.63Q84.77 3.82 84.60 3.88L84.60 3.88L84.60 3.88Q84.43 3.95 84.23 3.97L84.23 3.97L84.23 3.97Q84.03 3.99 83.84 4.28L83.84 4.28L83.84 4.28Q83.65 4.56 83.62 5.14L83.62 5.14L83.62 5.14Q83.59 5.68 83.55 8.19L83.55 8.19L83.55 8.19Q83.51 10.70 83.51 10.99L83.51 10.99L83.51 11.55L83.51 11.55Q83.51 12.56 83.85 12.66L83.85 12.66L83.85 12.66Q84.20 12.77 84.45 12.77L84.45 12.77L84.45 12.77Q85.50 12.77 86.29 12.67L86.29 12.67L86.29 12.67Q87.08 12.57 87.48 12.42L87.48 12.42L87.48 12.42Q87.88 12.28 88.14 12.10L88.14 12.10L88.14 12.10Q88.41 11.93 88.49 11.78L88.49 11.78L88.49 11.78Q88.56 11.63 88.64 11.54L88.64 11.54L88.64 11.54Q88.72 11.44 88.80 11.44L88.80 11.44L88.80 11.44Q88.97 11.44 88.97 11.68L88.97 11.68L88.97 11.68Q88.97 12.28 88.37 12.89L88.37 12.89L88.37 12.89Q87.77 13.51 87.32 13.51L87.32 13.51L87.32 13.51Q86.31 13.51 85.04 13.44L85.04 13.44L85.04 13.44Q83.78 13.37 83.47 13.37L83.47 13.37L83.47 13.37Q83.08 13.37 82.57 13.43L82.57 13.43L82.57 13.43Q82.05 13.48 81.72 13.48L81.72 13.48L81.72 13.48Q81.31 13.48 81.31 13.31L81.31 13.31L81.31 13.31Q81.31 13.22 81.39 13.15L81.39 13.15L81.39 13.15Q81.47 13.09 81.54 13.09L81.54 13.09L81.54 13.09Q81.75 13.09 81.94 12.95L81.94 12.95L81.94 12.95Q82.19 12.75 82.31 12.23L82.31 12.23L82.31 12.23Q82.42 11.70 82.42 10.21L82.42 10.21L82.42 8.47L82.42 8.47Q82.42 8.09 82.44 7.29L82.44 7.29L82.44 7.29Q82.46 6.50 82.46 6.05L82.46 6.05L82.46 6.05Q82.46 5.67 82.43 4.77L82.43 4.77L82.43 4.77Q82.42 4.37 82.08 4.14L82.08 4.14L82.08 4.14Q81.75 3.92 81.30 3.91L81.30 3.91L81.30 3.91Q81.16 3.91 81.12 3.86L81.12 3.86L81.12 3.86Q81.09 3.81 81.09 3.71ZM96.87 8.69L96.87 8.69L96.87 8.69Q96.87 6.34 98.28 4.84L98.28 4.84L98.28 4.84Q99.69 3.33 102.28 3.33L102.28 3.33L102.28 3.33Q103.49 3.33 104.45 3.68L104.45 3.68L104.45 3.68Q105.42 4.03 105.98 4.54L105.98 4.54L105.98 4.54Q106.54 5.05 106.92 5.71L106.92 5.71L106.92 5.71Q107.30 6.37 107.44 6.92L107.44 6.92L107.44 6.92Q107.58 7.48 107.58 7.95L107.58 7.95L107.58 7.95Q107.58 9.86 106.83 11.16L106.83 11.16L106.83 11.16Q106.09 12.47 104.88 13.07L104.88 13.07L104.88 13.07Q103.67 13.66 102.09 13.66L102.09 13.66L102.09 13.66Q100.42 13.66 99.21 12.94L99.21 12.94L99.21 12.94Q98 12.21 97.43 11.10L97.43 11.10L97.43 11.10Q96.87 10.00 96.87 8.69ZM98.10 7.98L98.10 7.98L98.10 7.98Q98.10 8.54 98.25 9.19L98.25 9.19L98.25 9.19Q98.41 9.84 98.76 10.54L98.76 10.54L98.76 10.54Q99.11 11.23 99.60 11.78L99.60 11.78L99.60 11.78Q100.10 12.33 100.86 12.69L100.86 12.69L100.86 12.69Q101.63 13.05 102.54 13.05L102.54 13.05L102.54 13.05Q103.01 13.05 103.54 12.90L103.54 12.90L103.54 12.90Q104.06 12.75 104.58 12.45L104.58 12.45L104.58 12.45Q105.10 12.14 105.50 11.70L105.50 11.70L105.50 11.70Q105.91 11.26 106.17 10.62L106.17 10.62L106.17 10.62Q106.43 9.98 106.43 9.24L106.43 9.24L106.43 9.24Q106.43 6.71 105.10 5.30L105.10 5.30L105.10 5.30Q103.77 3.89 101.81 3.89L101.81 3.89L101.81 3.89Q100.27 3.89 99.18 4.93L99.18 4.93L99.18 4.93Q98.10 5.96 98.10 7.98ZM115.14 3.70L115.14 3.70L115.14 3.70Q115.14 3.50 115.53 3.50L115.53 3.50L115.53 3.50Q115.60 3.50 116.07 3.53L116.07 3.53L116.07 3.53Q116.54 3.56 117.07 3.56L117.07 3.56L117.07 3.56Q117.19 3.56 117.51 3.54L117.51 3.54L117.51 3.54Q117.82 3.53 117.98 3.53L117.98 3.53L117.98 3.53Q118.30 3.53 118.37 3.56L118.37 3.56L118.37 3.56Q118.44 3.58 118.44 3.68L118.44 3.68L118.44 3.68Q118.44 3.77 118.30 3.84L118.30 3.84L118.30 3.84Q118.16 3.91 118.01 4.02L118.01 4.02L118.01 4.02Q117.87 4.14 117.87 4.34L117.87 4.34L117.87 4.34Q117.87 4.52 117.92 4.71L117.92 4.71L117.92 4.71Q117.96 4.90 118.13 5.29L118.13 5.29L118.13 5.29Q118.30 5.68 118.48 6.08L118.48 6.08L118.48 6.08Q118.65 6.47 119.05 7.34L119.05 7.34L119.05 7.34Q119.45 8.22 119.83 9.07L119.83 9.07L119.83 9.07Q121.00 11.77 121.23 11.77L121.23 11.77L121.23 11.77Q121.30 11.77 122.03 10.08L122.03 10.08L122.03 10.08Q122.77 8.39 123.48 6.54L123.48 6.54L123.48 6.54Q124.19 4.69 124.19 4.35L124.19 4.35L124.19 4.35Q124.19 4.13 124.03 4.01L124.03 4.01L124.03 4.01Q123.87 3.89 123.69 3.87L123.69 3.87L123.69 3.87Q123.51 3.85 123.35 3.80L123.35 3.80L123.35 3.80Q123.19 3.75 123.19 3.64L123.19 3.64L123.19 3.64Q123.19 3.54 123.24 3.52L123.24 3.52L123.24 3.52Q123.28 3.50 123.48 3.50L123.48 3.50L123.48 3.50Q123.52 3.50 123.80 3.51L123.80 3.51L123.80 3.51Q124.08 3.51 124.36 3.51L124.36 3.51L124.36 3.51Q124.61 3.51 124.93 3.50L124.93 3.50L124.93 3.50Q125.24 3.49 125.61 3.49L125.61 3.49L125.61 3.49Q125.87 3.49 125.87 3.68L125.87 3.68L125.87 3.68Q125.87 3.78 125.78 3.85L125.78 3.85L125.78 3.85Q125.69 3.92 125.57 3.98L125.57 3.98L125.57 3.98Q125.44 4.03 125.27 4.21L125.27 4.21L125.27 4.21Q125.10 4.40 124.98 4.69L124.98 4.69L121.86 11.80L121.86 11.80Q121.52 12.56 121.20 13.34L121.20 13.34L121.20 13.34Q121.04 13.72 121.00 13.79L121.00 13.79L121.00 13.79Q120.96 13.86 120.89 13.86L120.89 13.86L120.89 13.86Q120.64 13.86 120.26 12.89L120.26 12.89L120.26 12.89Q119.90 11.98 118.82 9.65L118.82 9.65L118.82 9.65Q118.29 8.48 117.85 7.50L117.85 7.50L117.85 7.50Q117.42 6.52 117.23 6.06L117.23 6.06L117.23 6.06Q117.04 5.60 116.88 5.24L116.88 5.24L116.88 5.24Q116.72 4.87 116.63 4.72L116.63 4.72L116.63 4.72Q116.55 4.56 116.44 4.44L116.44 4.44L116.44 4.44Q116.20 4.17 115.94 4.06L115.94 4.06L115.94 4.06Q115.68 3.95 115.52 3.96L115.52 3.96L115.52 3.96Q115.36 3.96 115.25 3.91L115.25 3.91L115.25 3.91Q115.14 3.86 115.14 3.70ZM133.43 3.65L133.43 3.65L133.43 3.65Q133.43 3.46 133.83 3.46L133.83 3.46L133.83 3.46Q133.88 3.46 134.01 3.47L134.01 3.47L134.01 3.47Q134.13 3.49 134.20 3.49L134.20 3.49L134.20 3.49Q134.25 3.49 135.52 3.52L135.52 3.52L135.52 3.52Q136.79 3.56 137.62 3.56L137.62 3.56L137.62 3.56Q137.91 3.56 139.07 3.53L139.07 3.53L139.07 3.53Q140.22 3.50 140.42 3.50L140.42 3.50L140.42 3.50Q140.69 3.50 140.69 3.82L140.69 3.82L140.69 3.82Q140.69 3.91 140.60 4.38L140.60 4.38L140.60 4.38Q140.52 4.84 140.52 5.25L140.52 5.25L140.52 5.25Q140.52 5.38 140.45 5.47L140.45 5.47L140.45 5.47Q140.38 5.56 140.29 5.56L140.29 5.56L140.29 5.56Q140.08 5.56 140.08 5.26L140.08 5.26L140.08 5.26Q140.08 4.89 139.85 4.58L139.85 4.58L139.85 4.58Q139.61 4.27 139.26 4.26L139.26 4.26L139.26 4.26Q138.00 4.16 137.33 4.16L137.33 4.16L136.96 4.16L136.96 4.16Q136.23 4.16 136.12 4.26L136.12 4.26L136.12 4.26Q136.00 4.37 135.97 5.01L135.97 5.01L135.97 5.01Q135.91 6.02 135.91 7.35L135.91 7.35L135.91 7.35Q135.91 8.05 136.18 8.06L136.18 8.06L136.53 8.06L137.12 8.06L137.55 8.06L137.55 8.06Q138.39 8.06 138.67 8.01L138.67 8.01L138.67 8.01Q138.95 7.95 139.17 7.80L139.17 7.80L139.17 7.80Q139.44 7.62 139.50 7.28L139.50 7.28L139.50 7.28Q139.54 7.04 139.69 7.04L139.69 7.04L139.69 7.04Q139.82 7.04 139.85 7.08L139.85 7.08L139.85 7.08Q139.87 7.13 139.87 7.27L139.87 7.27L139.87 7.27Q139.87 7.36 139.82 7.91L139.82 7.91L139.82 7.91Q139.76 8.46 139.76 8.74L139.76 8.74L139.76 8.74Q139.76 9.00 139.78 9.24L139.78 9.24L139.78 9.24Q139.80 9.48 139.80 9.59L139.80 9.59L139.80 9.59Q139.80 9.94 139.71 9.94L139.71 9.94L139.71 9.94Q139.50 9.94 139.40 9.60L139.40 9.60L139.40 9.60Q139.20 9.02 139.05 8.92L139.05 8.92L139.05 8.92Q138.75 8.72 137.70 8.72L137.70 8.72L137.70 8.72Q137.28 8.72 137.03 8.72L137.03 8.72L137.03 8.72Q136.77 8.72 136.69 8.71L136.69 8.71L136.69 8.71Q136.61 8.71 136.56 8.71L136.56 8.71L136.56 8.71Q136.51 8.71 136.47 8.71L136.47 8.71L136.47 8.71Q135.90 8.71 135.90 8.97L135.90 8.97L135.90 8.97Q135.90 9.38 135.88 9.99L135.88 9.99L135.88 9.99Q135.87 10.60 135.87 10.99L135.87 10.99L135.87 11.55L135.87 11.55Q135.87 12.56 136.21 12.66L136.21 12.66L136.21 12.66Q136.56 12.77 136.81 12.77L136.81 12.77L136.81 12.77Q137.86 12.77 138.65 12.67L138.65 12.67L138.65 12.67Q139.44 12.57 139.84 12.42L139.84 12.42L139.84 12.42Q140.24 12.28 140.50 12.10L140.50 12.10L140.50 12.10Q140.77 11.93 140.85 11.78L140.85 11.78L140.85 11.78Q140.92 11.63 141.00 11.54L141.00 11.54L141.00 11.54Q141.08 11.44 141.16 11.44L141.16 11.44L141.16 11.44Q141.33 11.44 141.33 11.68L141.33 11.68L141.33 11.68Q141.33 12.28 140.73 12.89L140.73 12.89L140.73 12.89Q140.13 13.51 139.68 13.51L139.68 13.51L139.68 13.51Q138.67 13.51 137.40 13.44L137.40 13.44L137.40 13.44Q136.14 13.37 135.83 13.37L135.83 13.37L135.83 13.37Q135.44 13.37 134.85 13.43L134.85 13.43L134.85 13.43Q134.26 13.50 133.92 13.50L133.92 13.50L133.92 13.50Q133.63 13.50 133.63 13.36L133.63 13.36L133.63 13.36Q133.63 13.23 133.63 13.19L133.63 13.19L133.63 13.19Q133.63 13.15 133.67 13.12L133.67 13.12L133.67 13.12Q133.71 13.09 133.76 13.08L133.76 13.08L133.76 13.08Q133.81 13.08 133.94 13.03L133.94 13.03L133.94 13.03Q134.08 12.99 134.23 12.92L134.23 12.92L134.23 12.92Q134.57 12.75 134.67 12.26L134.67 12.26L134.67 12.26Q134.78 11.77 134.78 10.21L134.78 10.21L134.78 8.47L134.78 8.47Q134.78 8.09 134.80 7.29L134.80 7.29L134.80 7.29Q134.82 6.50 134.82 6.05L134.82 6.05L134.82 6.05Q134.82 5.67 134.79 4.77L134.79 4.77L134.79 4.77Q134.78 4.37 134.44 4.14L134.44 4.14L134.44 4.14Q134.11 3.92 133.66 3.91L133.66 3.91L133.66 3.91Q133.43 3.91 133.43 3.65ZM148.89 3.71L148.89 3.71L148.89 3.71Q148.89 3.46 149.27 3.46L149.27 3.46L149.27 3.46Q149.32 3.46 149.45 3.47L149.45 3.47L149.45 3.47Q149.58 3.49 149.65 3.49L149.65 3.49L149.65 3.49Q149.79 3.49 150.17 3.51L150.17 3.51L150.17 3.51Q150.56 3.54 150.86 3.54L150.86 3.54L150.86 3.54Q151.30 3.54 151.79 3.51L151.79 3.51L151.79 3.51Q152.28 3.49 152.33 3.49L152.33 3.49L152.33 3.49Q152.57 3.49 152.57 3.63L152.57 3.63L152.57 3.63Q152.57 3.82 152.40 3.88L152.40 3.88L152.40 3.88Q152.24 3.95 152.03 3.97L152.03 3.97L152.03 3.97Q151.83 3.99 151.64 4.28L151.64 4.28L151.64 4.28Q151.45 4.56 151.42 5.14L151.42 5.14L151.42 5.14Q151.40 5.68 151.35 8.19L151.35 8.19L151.35 8.19Q151.31 10.70 151.31 10.99L151.31 10.99L151.31 11.55L151.31 11.55Q151.31 12.56 151.65 12.66L151.65 12.66L151.65 12.66Q152.00 12.77 152.25 12.77L152.25 12.77L152.25 12.77Q153.30 12.77 154.09 12.67L154.09 12.67L154.09 12.67Q154.88 12.57 155.28 12.42L155.28 12.42L155.28 12.42Q155.68 12.28 155.95 12.10L155.95 12.10L155.95 12.10Q156.21 11.93 156.29 11.78L156.29 11.78L156.29 11.78Q156.37 11.63 156.44 11.54L156.44 11.54L156.44 11.54Q156.52 11.44 156.60 11.44L156.60 11.44L156.60 11.44Q156.77 11.44 156.77 11.68L156.77 11.68L156.77 11.68Q156.77 12.28 156.17 12.89L156.17 12.89L156.17 12.89Q155.57 13.51 155.12 13.51L155.12 13.51L155.12 13.51Q154.11 13.51 152.84 13.44L152.84 13.44L152.84 13.44Q151.58 13.37 151.27 13.37L151.27 13.37L151.27 13.37Q150.88 13.37 150.37 13.43L150.37 13.43L150.37 13.43Q149.86 13.48 149.52 13.48L149.52 13.48L149.52 13.48Q149.11 13.48 149.11 13.31L149.11 13.31L149.11 13.31Q149.11 13.22 149.19 13.15L149.19 13.15L149.19 13.15Q149.27 13.09 149.34 13.09L149.34 13.09L149.34 13.09Q149.55 13.09 149.74 12.95L149.74 12.95L149.74 12.95Q150.00 12.75 150.11 12.23L150.11 12.23L150.11 12.23Q150.22 11.70 150.22 10.21L150.22 10.21L150.22 8.47L150.22 8.47Q150.22 8.09 150.24 7.29L150.24 7.29L150.24 7.29Q150.26 6.50 150.26 6.05L150.26 6.05L150.26 6.05Q150.26 5.67 150.23 4.77L150.23 4.77L150.23 4.77Q150.22 4.37 149.88 4.14L149.88 4.14L149.88 4.14Q149.55 3.92 149.10 3.91L149.10 3.91L149.10 3.91Q148.96 3.91 148.92 3.86L148.92 3.86L148.92 3.86Q148.89 3.81 148.89 3.71ZM164.33 3.65L164.33 3.65L164.33 3.65Q164.33 3.46 164.72 3.46L164.72 3.46L164.72 3.46Q164.78 3.46 164.91 3.47L164.91 3.47L164.91 3.47Q165.03 3.49 165.10 3.49L165.10 3.49L165.10 3.49Q165.14 3.49 166.42 3.52L166.42 3.52L166.42 3.52Q167.69 3.56 168.52 3.56L168.52 3.56L168.52 3.56Q168.81 3.56 169.97 3.53L169.97 3.53L169.97 3.53Q171.12 3.50 171.32 3.50L171.32 3.50L171.32 3.50Q171.58 3.50 171.58 3.82L171.58 3.82L171.58 3.82Q171.58 3.91 171.50 4.38L171.50 4.38L171.50 4.38Q171.42 4.84 171.42 5.25L171.42 5.25L171.42 5.25Q171.42 5.38 171.35 5.47L171.35 5.47L171.35 5.47Q171.28 5.56 171.19 5.56L171.19 5.56L171.19 5.56Q170.98 5.56 170.98 5.26L170.98 5.26L170.98 5.26Q170.98 4.89 170.74 4.58L170.74 4.58L170.74 4.58Q170.51 4.27 170.16 4.26L170.16 4.26L170.16 4.26Q168.90 4.16 168.22 4.16L168.22 4.16L167.86 4.16L167.86 4.16Q167.13 4.16 167.01 4.26L167.01 4.26L167.01 4.26Q166.89 4.37 166.87 5.01L166.87 5.01L166.87 5.01Q166.81 6.02 166.81 7.35L166.81 7.35L166.81 7.35Q166.81 8.05 167.08 8.06L167.08 8.06L167.43 8.06L168.01 8.06L168.45 8.06L168.45 8.06Q169.29 8.06 169.57 8.01L169.57 8.01L169.57 8.01Q169.85 7.95 170.07 7.80L170.07 7.80L170.07 7.80Q170.34 7.62 170.39 7.28L170.39 7.28L170.39 7.28Q170.44 7.04 170.59 7.04L170.59 7.04L170.59 7.04Q170.72 7.04 170.74 7.08L170.74 7.08L170.74 7.08Q170.77 7.13 170.77 7.27L170.77 7.27L170.77 7.27Q170.77 7.36 170.72 7.91L170.72 7.91L170.72 7.91Q170.66 8.46 170.66 8.74L170.66 8.74L170.66 8.74Q170.66 9.00 170.68 9.24L170.68 9.24L170.68 9.24Q170.70 9.48 170.70 9.59L170.70 9.59L170.70 9.59Q170.70 9.94 170.60 9.94L170.60 9.94L170.60 9.94Q170.39 9.94 170.30 9.60L170.30 9.60L170.30 9.60Q170.10 9.02 169.95 8.92L169.95 8.92L169.95 8.92Q169.65 8.72 168.60 8.72L168.60 8.72L168.60 8.72Q168.18 8.72 167.92 8.72L167.92 8.72L167.92 8.72Q167.66 8.72 167.59 8.71L167.59 8.71L167.59 8.71Q167.51 8.71 167.46 8.71L167.46 8.71L167.46 8.71Q167.41 8.71 167.37 8.71L167.37 8.71L167.37 8.71Q166.80 8.71 166.80 8.97L166.80 8.97L166.80 8.97Q166.80 9.38 166.78 9.99L166.78 9.99L166.78 9.99Q166.77 10.60 166.77 10.99L166.77 10.99L166.77 11.55L166.77 11.55Q166.77 12.56 167.10 12.66L167.10 12.66L167.10 12.66Q167.45 12.77 167.71 12.77L167.71 12.77L167.71 12.77Q168.76 12.77 169.55 12.67L169.55 12.67L169.55 12.67Q170.34 12.57 170.74 12.42L170.74 12.42L170.74 12.42Q171.14 12.28 171.40 12.10L171.40 12.10L171.40 12.10Q171.67 11.93 171.75 11.78L171.75 11.78L171.75 11.78Q171.82 11.63 171.90 11.54L171.90 11.54L171.90 11.54Q171.98 11.44 172.06 11.44L172.06 11.44L172.06 11.44Q172.23 11.44 172.23 11.68L172.23 11.68L172.23 11.68Q172.23 12.28 171.63 12.89L171.63 12.89L171.63 12.89Q171.02 13.51 170.58 13.51L170.58 13.51L170.58 13.51Q169.57 13.51 168.30 13.44L168.30 13.44L168.30 13.44Q167.03 13.37 166.73 13.37L166.73 13.37L166.73 13.37Q166.33 13.37 165.75 13.43L165.75 13.43L165.75 13.43Q165.16 13.50 164.82 13.50L164.82 13.50L164.82 13.50Q164.53 13.50 164.53 13.36L164.53 13.36L164.53 13.36Q164.53 13.23 164.53 13.19L164.53 13.19L164.53 13.19Q164.53 13.15 164.57 13.12L164.57 13.12L164.57 13.12Q164.61 13.09 164.66 13.08L164.66 13.08L164.66 13.08Q164.71 13.08 164.84 13.03L164.84 13.03L164.84 13.03Q164.98 12.99 165.13 12.92L165.13 12.92L165.13 12.92Q165.47 12.75 165.57 12.26L165.57 12.26L165.57 12.26Q165.68 11.77 165.68 10.21L165.68 10.21L165.68 8.47L165.68 8.47Q165.68 8.09 165.70 7.29L165.70 7.29L165.70 7.29Q165.72 6.50 165.72 6.05L165.72 6.05L165.72 6.05Q165.72 5.67 165.69 4.77L165.69 4.77L165.69 4.77Q165.68 4.37 165.34 4.14L165.34 4.14L165.34 4.14Q165.00 3.92 164.56 3.91L164.56 3.91L164.56 3.91Q164.33 3.91 164.33 3.65Z"></path></g></svg>