<svg data-v-d3f97b9e="" xmlns="http://www.w3.org/2000/svg" viewBox="0 0 224.67623032658594 60"><!----><!----><!----><g data-v-d3f97b9e="" id="aa676311-df90-4e86-9cff-71b49f06eaec" fill="white" transform="matrix(5.7471261427876925,0,0,5.7471261427876925,-7.241380502025137,-21.264366763940217)"><path d="M1.26 14.08L2.87 14.08L2.87 3.70L1.26 3.70ZM4.62 10.36C4.62 12.60 6.20 14.14 8.51 14.14C10.81 14.14 12.39 12.60 12.39 10.36C12.39 8.11 10.81 6.58 8.51 6.58C6.20 6.58 4.62 8.11 4.62 10.36ZM6.23 10.37C6.23 8.95 7.17 7.97 8.51 7.97C9.84 7.97 10.78 8.95 10.78 10.37C10.78 11.82 9.84 12.80 8.51 12.80C7.17 12.80 6.23 11.82 6.23 10.37ZM12.89 6.64L15.78 14.08L17.44 14.08L20.30 6.64L18.69 6.64L16.65 12.50L14.57 6.64ZM20.72 10.37C20.72 12.61 22.23 14.14 24.53 14.14C25.82 14.14 26.88 13.68 27.61 12.88L26.75 11.97C26.21 12.53 25.47 12.84 24.65 12.84C23.48 12.84 22.60 12.12 22.34 10.98L27.97 10.98C28.17 8.29 27.10 6.58 24.49 6.58C22.27 6.59 20.72 8.12 20.72 10.37ZM22.32 9.80C22.50 8.61 23.32 7.87 24.50 7.87C25.72 7.87 26.52 8.60 26.57 9.80ZM29.72 14.08L31.33 14.08L31.33 3.70L29.72 3.70ZM33.08 10.37C33.08 12.61 34.59 14.14 36.89 14.14C38.18 14.14 39.24 13.68 39.97 12.88L39.12 11.97C38.57 12.53 37.83 12.84 37.02 12.84C35.84 12.84 34.96 12.12 34.71 10.98L40.33 10.98C40.53 8.29 39.47 6.58 36.85 6.58C34.64 6.59 33.08 8.12 33.08 10.37ZM34.68 9.80C34.86 8.61 35.69 7.87 36.86 7.87C38.08 7.87 38.88 8.60 38.93 9.80Z"></path></g><!----><!----></svg>